<?xml version="1.0" encoding="utf-8"?>
<!-- Generator: Adobe Illustrator 26.0.0, SVG Export Plug-In . SVG Version: 6.00 Build 0)  -->
<svg version="1.1" id="Camada_1" xmlns="http://www.w3.org/2000/svg" xmlns:xlink="http://www.w3.org/1999/xlink" x="0px" y="0px"
	 viewBox="0 0 1920 1080" style="enable-background:new 0 0 1920 1080;" xml:space="preserve">
<style type="text/css">
	.st0{fill-rule:evenodd;clip-rule:evenodd;fill:#FE003E;}
	.st1{fill-rule:evenodd;clip-rule:evenodd;fill:#FFFFFF;}
	.st2{fill-rule:evenodd;clip-rule:evenodd;fill:url(#SVGID_1_);}
	.st3{fill-rule:evenodd;clip-rule:evenodd;fill:url(#SVGID_00000135652323473110167690000013759059425894825142_);}
</style>
<path class="st0" d="M961.64,56c268.14,0,485.49,217.36,485.49,485.49c0,268.15-217.36,485.51-485.49,485.51
	c-268.15,0-485.51-217.36-485.51-485.51C476.14,273.36,693.5,56,961.64,56z"/>
<g>
	<path class="st1" d="M960.66,380.32c27.11,0,49.09,21.91,49.09,48.95s-21.98,48.96-49.09,48.96c-27.11,0-49.09-21.92-49.09-48.96
		S933.55,380.32,960.66,380.32z"/>
	<linearGradient id="SVGID_1_" gradientUnits="userSpaceOnUse" x1="1023.2014" y1="247.2024" x2="920.0234" y2="733.5263">
		<stop  offset="0" style="stop-color:#FFFFFF"/>
		<stop  offset="0.2323" style="stop-color:#FBFBFC"/>
		<stop  offset="0.4396" style="stop-color:#F1F1F1"/>
		<stop  offset="0.6373" style="stop-color:#DEDEDF"/>
		<stop  offset="0.8279" style="stop-color:#C5C5C6"/>
		<stop  offset="1" style="stop-color:#A7A7A8"/>
	</linearGradient>
	<path class="st2" d="M1207.74,792.3c65.98-62.85,103.62-156.21,103.62-251.9c0-193.07-157.49-350.12-351.1-350.12
		c-201.94,0-328.04,148.81-348.09,311C649.72,360.4,790.7,255.45,917.33,255.45c138.49,0,210.93,63.6,262.68,155.64
		c22.41,37.87,35.26,82.05,35.26,129.31c0,93.41-43.54,179.79-131.36,219.69l-1.07,0.48l-0.45,0.2l-1.51,0.65
		c-16.18,6.92-45.46,18.22-59.07,8.56C1041.28,819.4,1093.85,843.24,1207.74,792.3z"/>
	
		<linearGradient id="SVGID_00000042003831476130810950000001888122235737486491_" gradientUnits="userSpaceOnUse" x1="653.5107" y1="580.165" x2="1104.0956" y2="425.5535">
		<stop  offset="0" style="stop-color:#FFFFFF"/>
		<stop  offset="0.3357" style="stop-color:#FCFCFC"/>
		<stop  offset="0.5376" style="stop-color:#F4F4F4"/>
		<stop  offset="0.704" style="stop-color:#E6E6E6"/>
		<stop  offset="0.8512" style="stop-color:#D2D2D2"/>
		<stop  offset="0.9845" style="stop-color:#B8B8B8"/>
		<stop  offset="1" style="stop-color:#B4B4B4"/>
	</linearGradient>
	<path style="fill-rule:evenodd;clip-rule:evenodd;fill:url(#SVGID_00000042003831476130810950000001888122235737486491_);" d="
		M643.14,391.89C583.66,514.6,591,669.77,707.2,788.66c8.91,11.58,22.97,19.01,38.73,18.91c26.75-0.14,48.31-21.9,48.17-48.58
		c-0.1-15.38-7.39-29.07-18.69-37.85c-183.94-189.42,11.45-507.8,266.74-421.26c88.72,30.07,149.91,103.74,167.71,188.87
		c-19.29-103.74-67.36-187.21-198.48-231.65C891.48,216.44,724.14,270.57,643.14,391.89z"/>
	<path class="st1" d="M1071.35,863.63l0.85-0.18l2.61-0.57c25.18-5.43,48.76-14.17,70.47-25.64l2.52-1.21l-0.05-0.12
		c22.4-12.11,42.81-27.17,61.07-44.57c-111.41,49.83-196.05,38.25-199.26-91.11V549.37c0-14.39-4.62-26.64-14.07-36.96
		c-18.86-19.87-49.44-19.87-68.31,0c-9.44,10.31-14.05,22.56-14.05,36.96v153.09c-0.14,5.51-0.14,10.88,0,16.09v2.78h0.08
		c2.55,71.61,30.97,114.77,73.27,135.28C1011.38,868.65,1039.66,870.26,1071.35,863.63z"/>
</g>
</svg>
